<?xml version="1.0" encoding="utf-8"?>
<svg xmlns="http://www.w3.org/2000/svg" version="1.0" width="50mm" height="50mm" viewBox="0 0 50 50">
  <g style="transform-origin: 25px 25px;" transform="matrix(0.663766, -0.663766, 0.663766, 0.663766, 0.000009, 0)">
    <path d="M 7 7 L 7 25 C 11.225 24.911 16.494 23.408 14.545 26.852 C 12.588 30.296 19.476 30.296 17.989 26.852 C 16.494 23.408 21.557 24.697 25 25 M 7 7 L 25 7 C 25.271 11.225 26.827 16.597 23.383 14.696 C 19.94 12.788 19.94 19.676 23.383 18.141 C 26.827 16.597 25.188 21.556 25 25" style="stroke-opacity: 0.8; stroke: rgb(0, 0, 0); stroke-linejoin: round; stroke-linecap: round; fill-rule: evenodd; transform-box: fill-box; transform-origin: 50% 50%;" fill="#98DBC6"/>
    <path d="M 25 25 C 28.444 25.302 33.7 26.852 31.888 23.408 C 30 19.965 36.957 19.965 35.331 23.408 C 33.7 26.852 38.776 24.854 43 25 L 43 7 L 25 7 C 25.271 11.225 26.827 16.597 23.383 14.696 C 19.94 12.788 19.94 19.676 23.383 18.141 C 26.827 16.597 25.188 21.556 25 25" style="stroke-opacity: 0.8; stroke: rgb(0, 0, 0); stroke-linejoin: round; stroke-linecap: round; fill-rule: evenodd; transform-box: fill-box; transform-origin: 50% 50%;" fill="#5BC8AC"/>
    <path d="M 7 25 C 11.225 24.911 16.494 23.408 14.545 26.852 C 12.588 30.296 19.476 30.296 17.989 26.852 C 16.494 23.408 21.557 24.697 25 25 C 24.815 28.444 26.551 33.375 23.108 31.923 C 19.663 30.469 19.663 37.357 23.108 35.366 C 26.551 33.375 24.795 38.775 25 43 L 7 43 L 7 25" style="stroke-opacity: 0.8; stroke: rgb(0, 0, 0); stroke-linejoin: round; stroke-linecap: round; fill-rule: evenodd; transform-box: fill-box; transform-origin: 50% 50%;" fill="#E6D72A"/>
    <path d="M 25 25 C 24.815 28.444 26.551 33.375 23.108 31.923 C 19.663 30.469 19.663 37.357 23.108 35.366 C 26.551 33.375 24.795 38.775 25 43 L 43 43 M 25 25 C 28.444 25.302 33.7 26.852 31.888 23.408 C 30 19.965 36.957 19.965 35.331 23.408 C 33.7 26.852 38.776 24.854 43 25 L 43 43" style="stroke-opacity: 0.8; stroke: rgb(0, 0, 0); stroke-linejoin: round; stroke-linecap: round; fill-rule: evenodd; transform-box: fill-box; transform-origin: 50% 50%;" fill="#F18D9E"/>
  </g>
</svg>