<svg width="655" height="650" xmlns="http://www.w3.org/2000/svg" xmlns:xlink="http://www.w3.org/1999/xlink" xml:space="preserve" overflow="hidden"><defs><clipPath id="clip0"><rect x="362" y="715" width="655" height="650"/></clipPath><clipPath id="clip1"><rect x="362" y="715" width="655" height="650"/></clipPath><clipPath id="clip2"><rect x="364" y="715" width="650" height="651"/></clipPath><clipPath id="clip3"><rect x="364" y="715" width="650" height="651"/></clipPath><clipPath id="clip4"><rect x="364" y="715" width="650" height="651"/></clipPath></defs><g clip-path="url(#clip0)" transform="translate(-362 -715)"><g clip-path="url(#clip1)"><g clip-path="url(#clip2)"><g clip-path="url(#clip3)"><g clip-path="url(#clip4)"><path d="M603.28 129.075 565.344 167.011 512.351 152.813 498.152 99.8218 536.121 61.8527C553.261 44.7125 536.776 16.1337 513.265 22.0343 495.316 26.5393 478.312 35.7723 464.228 49.7575 436.698 77.0928 427.453 116.984 436.615 152.784 437.674 156.925 436.677 161.297 433.652 164.32L84.4131 513.559C101.484 514.178 118.364 520.802 131.371 533.789 144.368 546.795 150.98 563.691 151.597 580.757L500.622 231.731C503.672 228.681 508.094 227.695 512.263 228.797 547.826 238.203 587.242 229.098 615.132 201.209 629.247 187.093 638.565 170.019 643.107 151.984 649.039 128.444 620.447 111.909 603.28 129.075Z" fill="#AFB9D2" fill-rule="nonzero" fill-opacity="1" transform="matrix(1 0 0 1.00154 364 715)"/><path d="M86.1471 649C68.2122 649 50.2848 642.184 36.6317 628.529 9.34332 601.23 9.34332 556.805 36.6317 529.507 63.9506 502.198 108.377 502.218 135.654 529.507 162.952 556.805 162.952 601.23 135.654 628.529 122.008 642.173 104.072 649 86.1471 649ZM86.1471 537.463C75.4982 537.463 64.8506 541.522 56.7419 549.621 40.5371 565.825 40.5371 592.215 56.7419 608.418 72.958 624.611 99.3236 624.635 115.54 608.418 131.744 592.202 131.744 565.837 115.54 549.621 107.432 541.522 96.7948 537.463 86.1471 537.463Z" fill="#959CB5" fill-rule="nonzero" fill-opacity="1" transform="matrix(1 0 0 1.00154 364 715)"/><path d="M472.954 192.205C467.154 186.406 457.759 186.406 451.958 192.205L359.722 284.446C355.084 289.084 347.562 289.084 342.924 284.446L328.225 269.747 252.635 345.338 267.335 360.038C271.973 364.676 271.973 372.196 267.335 376.836L157.191 486.982C151.392 492.781 151.392 502.176 157.191 507.978 160.091 510.878 163.884 512.328 167.688 512.328 171.492 512.328 175.286 510.878 178.185 507.978L288.326 397.832C292.964 393.194 300.486 393.194 305.124 397.832L319.821 412.529 395.412 336.939 380.713 322.24C376.075 317.602 376.075 310.081 380.713 305.442L472.951 213.202C478.753 207.4 478.753 198.005 472.954 192.205Z" fill="#959CB5" fill-rule="nonzero" fill-opacity="1" transform="matrix(1 0 0 1.00154 364 715)"/><path d="M606.597 581.716 140.604 115.721 98.6074 157.715 484.637 543.744 515.352 608.053 547.805 640.507C552.443 645.145 559.964 645.145 564.602 640.507L606.596 598.514C611.236 593.873 611.235 586.354 606.597 581.716Z" fill="#FFDC64" fill-rule="nonzero" fill-opacity="1" transform="matrix(1 0 0 1.00154 364 715)"/><path d="M565.622 622.69 533.169 590.236 502.454 525.927 158.603 182.075C153.965 177.437 153.965 169.915 158.603 165.277L174.382 149.498 140.605 115.721 98.6087 157.715 484.638 543.744 515.353 608.053 547.807 640.507C552.445 645.145 559.965 645.145 564.603 640.507L582.42 622.69C577.781 627.329 570.261 627.329 565.622 622.69Z" fill="#FFC850" fill-rule="nonzero" fill-opacity="1" transform="matrix(1 0 0 1.00154 364 715)"/><path d="M103.705 43.7888 170.938 43.7888 170.938 115.109 103.705 115.109Z" fill="#959CB5" fill-rule="nonzero" fill-opacity="1" transform="matrix(-0.706563 0.707652 -0.706563 -0.707652 654.382 753.558)"/><path d="M95.5526 70.67C90.9145 66.0319 83.3927 66.0319 78.7546 70.67L28.3621 121.064C-8.74756 158.173 1.41715 228.501 38.5268 265.61L48.9551 241.079C51.5841 234.894 50.6309 228.094 47.7408 222.026 42.0735 210.13 44.7709 195.246 55.833 186.198 65.0635 178.647 77.7266 178.191 88.0827 183.354 92.8742 185.741 98.5757 185.182 102.329 181.366L153.864 128.984 95.5526 70.67Z" fill="#AFB9D2" fill-rule="nonzero" fill-opacity="1" transform="matrix(1 0 0 1.00154 364 715)"/><path d="M73.7337 158.25C45.7431 158.25 23.0534 180.939 23.0534 208.93 23.0534 226.202 31.7287 241.413 44.9217 250.563L48.9526 241.081C51.5816 234.894 50.6283 228.096 47.7383 222.028 42.0709 210.134 44.7683 195.248 55.8305 186.2 65.061 178.649 77.7241 178.192 88.0815 183.355 92.8729 185.742 98.5745 185.183 102.328 181.368L109.978 173.592C100.774 164.15 87.9585 158.25 73.7337 158.25Z" fill="#959CB5" fill-rule="nonzero" fill-opacity="1" transform="matrix(1 0 0 1.00154 364 715)"/><path d="M196.339 87.468 213.137 70.67C217.775 66.0319 217.775 58.5101 213.137 53.8721L162.743 3.47823C158.105-1.15983 150.583-1.15983 145.945 3.47823L129.148 20.2762C124.51 24.9142 124.51 32.4361 129.148 37.0741L179.541 87.4667C184.179 92.106 191.701 92.106 196.339 87.468Z" fill="#AFB9D2" fill-rule="nonzero" fill-opacity="1" transform="matrix(1 0 0 1.00154 364 715)"/></g></g></g><g><g><g><path d="M795.419 939.526 699.728 1103.63 736.182 1110.92C784.483 1100.63 824.886 1037.04 795.419 939.526Z" fill="#80362D" fill-rule="nonzero" fill-opacity="1"/><path d="M581.581 939.526 677.272 1103.63 640.818 1110.92C592.517 1100.63 552.114 1037.04 581.581 939.526Z" fill="#80362D" fill-rule="nonzero" fill-opacity="1"/><path d="M739.931 1069.62 739.535 1069.62 739.535 1052.59 637.465 1052.59 637.465 1069.6C637.465 1086.27 637.396 1104.39 622.884 1115.34L622.884 1173.58C622.884 1173.58 722.859 1173.58 754.117 1173.58L754.117 1115.09C739.977 1104.1 739.931 1086.15 739.931 1069.62Z" fill="#FFD7A3" fill-rule="nonzero" fill-opacity="1"/><path d="M746.825 1147.37C749.485 1148.1 751.881 1148.49 754.115 1148.67L754.115 1115.09C739.976 1104.1 739.93 1086.15 739.93 1069.62L739.962 1069.62 739.962 1052.59 659.335 1052.59 637.463 1059.88C652.046 1076.29 696.702 1133.7 746.825 1147.37Z" fill="#FDC88E" fill-rule="nonzero" fill-opacity="1"/><path d="M790.569 957.814C790.569 1016.2 732.504 1089.05 688.5 1089.05 644.496 1089.05 586.431 1016.2 586.431 957.814 586.431 899.429 632.129 877.615 688.5 877.615 744.871 877.615 790.569 899.429 790.569 957.814Z" fill="#FFE1B2" fill-rule="nonzero" fill-opacity="1"/><path d="M703.082 841.162C698.986 841.162 685.686 845.765 674.816 849.798L673.919 848.453C673.919 848.453 672.419 849.632 669.822 851.675 663.776 853.97 659.339 855.743 659.339 855.743L661.044 858.586C633.371 880.389 588.159 937.555 582.482 943.232 575.192 950.522 598.947 1132.24 608.249 1026.84 614.987 950.482 664.707 932.954 710.373 922.209 731.03 917.349 729.816 889.766 732.245 877.615 734.674 865.464 710.372 841.162 703.082 841.162Z" fill="#80362D" fill-rule="nonzero" fill-opacity="1"/><path d="M717.663 886.364C731.029 934.36 758.976 987.219 785.473 989.817 799.576 991.2 791.937 920.615 791.937 920.615 791.937 920.615 771.735 884.541 769.306 883.326 766.876 882.11 748.649 868.501 748.649 868.501L710.372 863.035 717.663 886.364Z" fill="#80362D" fill-rule="nonzero" fill-opacity="1"/><path d="M779.711 964.556C791.641 961.821 799.456 967.663 799.456 979.137 799.456 994.326 783.414 1031.54 766.549 1008.3L779.711 964.556Z" fill="#FFE1B2" fill-rule="nonzero" fill-opacity="1"/><path d="M775.989 852.99 775.989 841.175C775.989 837.142 772.719 833.872 768.686 833.872L761.419 833.872C759.55 833.872 757.886 834.628 756.595 835.782 741.864 826.484 723.754 821.431 703.082 819.883L703.082 819.302C703.082 815.27 699.812 812 695.779 812L681.222 812C677.189 812 673.919 815.27 673.919 819.302L673.919 819.883C653.116 821.445 635.072 826.562 620.436 835.802 619.141 834.633 617.463 833.872 615.581 833.872L608.314 833.872C604.281 833.872 601.011 837.142 601.011 841.175L601.011 853.003C586.986 870.41 579.139 895.108 579.139 928.652L579.139 943.234 797.861 943.234 797.861 928.652C797.861 894.906 789.928 870.293 775.989 852.99Z" fill="#FFBE1E" fill-rule="nonzero" fill-opacity="1"/><path d="M688.5 914.069C641.822 914.069 571.966 927.125 571.966 943.232L805.035 943.232C805.034 927.127 735.178 914.069 688.5 914.069Z" fill="#FC9B28" fill-rule="nonzero" fill-opacity="1"/><path d="M797.861 1124.83 795.431 1124.83C767.915 1124.83 754.067 1117.56 746.978 1107.11 739.878 1127.04 716.421 1141.69 688.501 1141.69 660.582 1141.69 637.124 1127.04 630.024 1107.11 622.936 1117.56 609.087 1124.83 581.571 1124.83L579.141 1124.83C534.85 1124.83 498.943 1160.74 498.943 1205.03L498.943 1245.13C498.943 1257.21 508.735 1267 520.815 1267L856.186 1267C868.266 1267 878.058 1257.21 878.058 1245.13L878.058 1205.03C878.058 1160.74 842.153 1124.83 797.861 1124.83Z" fill="#FFBE1E" fill-rule="nonzero" fill-opacity="1"/><path d="M564.557 1267 812.442 1267 812.442 1126.22C807.706 1125.35 802.847 1124.83 797.86 1124.83L795.43 1124.83C790.994 1124.83 787.033 1124.58 783.279 1124.22L783.279 1201.79C783.279 1205.13 781.064 1208.08 777.825 1208.88 753.145 1214.95 722.187 1218.59 688.5 1218.59 654.813 1218.59 623.855 1214.95 599.175 1208.88 595.935 1208.08 593.721 1205.13 593.721 1201.79L593.721 1124.22C589.966 1124.58 586.006 1124.83 581.57 1124.83L579.14 1124.83C574.153 1124.83 569.294 1125.35 564.558 1126.22L564.558 1267Z" fill="#4F6E8D" fill-rule="nonzero" fill-opacity="1"/></g></g></g></g></g></svg>