<?xml version="1.0" encoding="utf-8"?>
<svg version="1.0" width="1280" height="1280" viewBox="0 0 1280 1280" preserveAspectRatio="xMidYMid meet" xmlns="http://www.w3.org/2000/svg">
  <g transform="translate(200,1280.000000) scale(0.100000,-0.100000)" stroke="none">
    <path d="M2920 12789 c0 -17 64 -114 203 -309 170 -239 254 -402 320 -621 61 -201 72 -283 72 -569 0 -273 -9 -365 -62 -600 -89 -404 -243 -806 -519 -1360 -383 -766 -808 -1462 -2059 -3365 -423 -643 -484 -742 -590 -960 -469 -959 -356 -1865 339 -2710 604 -733 1681 -1428 3086 -1988 173 -69 687 -262 775 -291 29 -10 13 0 -155 100 -392 234 -695 468 -1001 773 -278 279 -456 516 -597 793 -266 524 -311 1043 -138 1578 239 740 548 1411 1246 2710 305 565 640 1223 749 1465 236 524 402 1045 431 1347 41 431 -163 1084 -580 1853 -265 491 -617 1033 -1004 1550 -256 342 -516 646 -516 604z" fill="red"/>
    <path d="M5690 8727 c0 -4 40 -92 90 -195 110 -229 123 -277 122 -442 -1 -193 -35 -378 -119 -650 -161 -522 -400 -1048 -1101 -2427 -573 -1125 -742 -1490 -845 -1818 -163 -521 -35 -1124 356 -1675 79 -112 197 -250 253 -296 79 -64 65 -34 -52 109 -100 123 -131 204 -141 377 -22 388 201 988 685 1850 63 113 221 383 351 600 437 733 608 1048 769 1415 179 410 350 945 388 1215 29 204 2 429 -76 640 -57 156 -193 424 -513 1010 -141 260 -167 304 -167 287z" fill="orange"/>
    <path d="M7178 7070 c44 -85 95 -197 112 -249 211 -628 18 -1687 -468 -2571 -99 -181 -227 -382 -598 -940 -494 -743 -629 -960 -779 -1259 -171 -343 -238 -555 -270 -861 -22 -204 -18 -413 12 -640 l7 -55 7 67 c32 299 299 612 1294 1514 884 802 1313 1451 1469 2224 29 144 47 326 53 535 15 556 -67 947 -281 1336 -35 63 -151 259 -258 435 -107 175 -232 382 -278 459 -45 77 -87 145 -93 150 -5 6 27 -60 71 -145z" fill="yellow"/>
  </g>
</svg>