<svg height="416pt" viewBox="0 0 416 416" width="416pt" xmlns="http://www.w3.org/2000/svg"><path d="m416 208c0 114.875-93.125 208-208 208s-208-93.125-208-208 93.125-208 208-208 208 93.125 208 208zm0 0" fill="#ccdce5"/><path d="m362.109375 56.078125c-37.492187-37.492187-136.265625.5-220.617187 84.851563-84.355469 84.351562-122.34375 183.128906-84.855469 220.617187 37.492187 37.492187 136.265625-.5 220.617187-84.851563 84.355469-84.355468 122.34375-183.128906 84.855469-220.617187zm0 0" fill="#ffc018"/><path d="m64.664062 196.425781-13.328124-8.851562c36.972656-54.648438 84.199218-101.605469 139.0625-138.261719l8.800781 13.375c-53.058594 35.472656-98.746094 80.886719-134.535157 133.738281zm0 0" fill="#ffc018"/><path d="m47.046875 225.785156-14.09375-7.570312c2.550781-4.734375 5.238281-9.519532 8.09375-14.3125l13.753906 8.195312c-2.726562 4.585938-5.308593 9.148438-7.753906 13.6875zm0 0" fill="#ffc018"/><g fill="#e87425"><path d="m319.03125 93.101562 11.3125-11.3125 11.316406 11.3125-11.316406 11.3125zm0 0"/><path d="m205.886719 127.039062 11.316406-11.308593 11.308594 11.316406-11.316407 11.3125zm0 0"/><path d="m104.070312 251.492188 11.316407-11.3125 11.3125 11.3125-11.3125 11.316406zm0 0"/><path d="m291.542969 141.835938 11.3125-11.316407 11.316406 11.308594-11.308594 11.316406zm0 0"/><path d="m98.414062 336.347656 11.3125-11.316406 11.3125 11.316406-11.3125 11.3125zm0 0"/></g><path d="m187.433594 245.800781 11.199218 19.625c8.382813 14.664063 5.910157 33.125-6.03125 45.070313-13.824218 13.820312-13.824218 36.230468 0 50.046875 11.796876 11.800781 30.234376 13.753906 44.246094 4.6875l58.710938-37.992188c8.933594-5.773437 17.230468-12.476562 24.753906-20 7.519531-7.519531 14.222656-15.8125 20-24.742187l37.992188-58.710938c9.0625-14.011718 7.109374-32.449218-4.6875-44.25-13.820313-13.824218-36.230469-13.824218-50.050782 0-11.945312 11.945313-30.40625 14.414063-45.070312 6.03125l-19.625-11.199218c-20.503906-11.710938-46.3125-8.253907-63.015625 8.441406-16.679688 16.699218-20.128907 42.496094-8.421875 62.992187zm0 0" fill="#eb4042"/><path d="m224 240c-4.417969 0-8-3.582031-8-8v-24c0-4.417969 3.582031-8 8-8h24c4.417969 0 8 3.582031 8 8s-3.582031 8-8 8h-16v16c0 4.417969-3.582031 8-8 8zm0 0" fill="#88bf40"/></svg>