<?xml version="1.0" encoding="utf-8"?>
<svg width="2480px" height="3507px" viewBox="0 0 1200 1200" xmlns="http://www.w3.org/2000/svg" preserveAspectRatio="xMinYMin">
  <g id="g1" transform="matrix(1, 0, 0, 1, -648.914062, -1175.797729)">
    <g id="g2">
      <g id="g3">
        <path id="path1" fill="#273777" stroke="none" d="M 908.439148 1733.200562 C 909.065796 1731.898438 910.095215 1731.898438 910.725952 1733.200562 L 919.055176 1750.111328 C 919.702148 1751.372681 921.362305 1752.617798 922.753906 1752.78064 L 941.442871 1755.498657 C 942.826355 1755.710327 943.172241 1756.694946 942.167175 1757.671509 L 928.637695 1770.847046 C 927.612305 1771.823608 926.965332 1773.78479 927.233887 1775.18457 L 930.407715 1793.8125 C 930.672241 1795.204102 929.793335 1795.806274 928.568542 1795.122681 L 911.853027 1786.333618 C 910.60791 1785.658203 908.544922 1785.658203 907.303894 1786.333618 L 890.604675 1795.122681 C 889.363647 1795.806274 888.513184 1795.204102 888.753296 1793.8125 L 891.971863 1775.18457 C 892.175293 1773.78479 891.581238 1771.823608 890.531433 1770.847046 L 877.026367 1757.671509 C 876.009155 1756.694946 876.330566 1755.710327 877.726257 1755.498657 L 896.374512 1752.78064 C 897.814941 1752.617798 899.475098 1751.372681 900.109863 1750.111328 L 908.439148 1733.200562 Z"/>
        <path id="path2" fill="#273777" stroke="none" d="M 797.546143 1704.530273 C 798.254639 1703.016602 799.442566 1702.951538 800.252563 1704.457031 L 810.681152 1724.134766 C 811.450439 1725.615845 813.460327 1726.974976 815.100098 1727.170288 L 837.280273 1729.733765 C 838.944519 1729.880249 839.298279 1731.043945 838.134521 1732.223999 L 822.684509 1748.255859 C 821.537537 1749.44397 820.858032 1751.78772 821.166992 1753.447876 L 825.598389 1775.265991 C 825.911743 1776.917969 824.930847 1777.625977 823.465759 1776.917969 L 803.422058 1767.136108 C 801.940918 1766.403687 799.552429 1766.460571 798.055054 1767.290649 L 778.662109 1778.211914 C 777.177185 1779.066406 776.212585 1778.325806 776.424194 1776.730835 L 779.573853 1754.676758 C 779.777039 1753.016602 778.942871 1750.713501 777.726257 1749.614868 L 761.311584 1734.526978 C 760.070801 1733.37146 760.432983 1732.223999 762.084961 1731.939087 L 784.020752 1728.089844 C 785.677124 1727.772461 787.581116 1726.315796 788.28125 1724.785767 L 797.546143 1704.530273 Z"/>
        <path id="path3" fill="#273777" stroke="none" d="M 919.588257 1512.635742 C 920.316589 1511.431274 921.350098 1511.488281 921.862793 1512.806641 L 928.987671 1530.262695 C 929.549194 1531.581055 931.132019 1532.899414 932.474792 1533.208618 L 950.960327 1537.15564 C 952.323425 1537.481079 952.59198 1538.482056 951.538086 1539.385376 L 937.141968 1551.600586 C 936.002625 1552.520142 935.270203 1554.432617 935.375977 1555.840454 L 937.308777 1574.598633 C 937.410522 1575.998413 936.572266 1576.567993 935.359741 1575.819336 L 919.319702 1565.899048 C 918.119324 1565.142212 916.048218 1564.979492 914.786804 1565.56543 L 897.489441 1573.190796 C 896.183289 1573.768555 895.397949 1573.101196 895.739746 1571.717773 L 900.211609 1553.382813 C 900.545288 1552.03186 900.036621 1550.029907 899.125183 1548.955688 L 886.527527 1534.876953 C 885.60791 1533.851563 885.97821 1532.883179 887.382019 1532.777344 L 906.176758 1531.328735 C 907.629395 1531.239258 909.334351 1530.15686 910.070801 1528.936157 L 919.588257 1512.635742 Z"/>
        <path id="path4" fill="#273777" stroke="none" d="M 946.561707 1335.186279 C 947.224976 1333.583008 948.486328 1333.526123 949.304199 1335.039795 L 960.400391 1355.384766 C 961.234558 1356.914795 963.362671 1358.314453 965.112305 1358.493408 L 988.146973 1360.869873 C 989.876343 1361.065186 990.270996 1362.212646 989.115417 1363.490234 L 973.197449 1380.335938 C 972.025574 1381.589111 971.321655 1384.054932 971.683777 1385.747803 L 976.538086 1408.379639 C 976.888062 1410.072266 975.935913 1410.853516 974.34082 1410.137451 L 953.393555 1400.217041 C 951.839233 1399.468506 949.304199 1399.566162 947.810913 1400.412354 L 927.775085 1412.049805 C 926.273621 1412.904297 925.227905 1412.22876 925.443542 1410.495361 L 928.409851 1387.554443 C 928.625488 1385.796631 927.775085 1383.436523 926.477051 1382.256592 L 909.240723 1366.794189 C 907.93457 1365.638672 908.256042 1364.434326 909.969116 1364.084229 L 932.747437 1359.868896 C 934.472656 1359.5271 936.43396 1357.931885 937.166382 1356.361328 L 946.561707 1335.186279 Z"/>
        <path id="path5" fill="#273777" stroke="none" d="M 1173.046875 1334.494385 C 1173.815918 1333.355225 1174.759888 1333.436523 1175.223755 1334.754883 L 1181.380249 1351.861084 C 1181.872559 1353.155029 1183.30481 1354.481445 1184.610962 1354.823242 L 1202.225708 1359.478271 C 1203.527832 1359.820068 1203.723145 1360.780273 1202.652954 1361.634766 L 1188.285278 1372.759521 C 1187.198853 1373.5896 1186.368774 1375.363525 1186.425781 1376.739014 L 1187.467407 1394.903076 C 1187.552856 1396.270264 1186.661743 1396.758545 1185.575317 1395.977295 L 1170.544434 1385.747803 C 1169.413208 1384.982666 1167.464233 1384.77124 1166.145874 1385.251221 L 1149.251343 1391.818604 C 1147.928833 1392.323242 1147.224976 1391.664063 1147.623657 1390.362061 L 1152.722168 1372.897705 C 1153.051758 1371.595703 1152.697754 1369.642578 1151.798462 1368.592773 L 1140.29541 1354.53833 C 1139.432739 1353.447998 1139.847778 1352.503906 1141.19873 1352.49585 L 1159.407593 1351.942383 C 1160.754395 1351.885498 1162.483765 1350.916992 1163.212036 1349.785889 L 1173.046875 1334.494385 Z"/>
        <path id="path6" fill="#273777" stroke="none" d="M 1429.158569 1505.474243 C 1430.163574 1504.237305 1431.266235 1504.473267 1431.640625 1506.003296 L 1436.759399 1526.039063 C 1437.137817 1527.552734 1438.627075 1529.261719 1440.071655 1529.782593 L 1459.606934 1536.94397 C 1461.067749 1537.505493 1461.169434 1538.604126 1459.830688 1539.434204 L 1442.297363 1550.518188 C 1440.930176 1551.332031 1439.868164 1553.276978 1439.803101 1554.847656 L 1438.952637 1575.567017 C 1438.916016 1577.12146 1437.858032 1577.536499 1436.669922 1576.567993 L 1420.739746 1563.311157 C 1419.506836 1562.326538 1417.325806 1561.870728 1415.795898 1562.293945 L 1395.825195 1567.901001 C 1394.319702 1568.340454 1393.595337 1567.485962 1394.15686 1566.053711 L 1401.84729 1546.766602 C 1402.429199 1545.358765 1402.172852 1543.112671 1401.27771 1541.818726 L 1389.786743 1524.614868 C 1388.920044 1523.304688 1389.477539 1522.328125 1391.056274 1522.442017 L 1411.751343 1523.78479 C 1413.265015 1523.87439 1415.364624 1522.914063 1416.320801 1521.742188 L 1429.158569 1505.474243 Z"/>
        <path id="path7" fill="#273777" stroke="none" d="M 1198.465942 1250.111328 C 1199.641968 1248.809326 1200.817871 1249.134766 1201.184082 1250.860107 L 1205.452515 1273.5 C 1205.741333 1275.200928 1207.328247 1277.137695 1208.919312 1277.870117 L 1229.992676 1287.147461 C 1231.608032 1287.863525 1231.608032 1289.108643 1230.09436 1289.963135 L 1209.887695 1300.990234 C 1208.38623 1301.828369 1206.966187 1303.927979 1206.827759 1305.669678 L 1204.504395 1328.578125 C 1204.288696 1330.287109 1203.149414 1330.726563 1201.920532 1329.554688 L 1185.091187 1313.766846 C 1183.841919 1312.586914 1181.449341 1311.886963 1179.764771 1312.237061 L 1157.234741 1317.103516 C 1155.501343 1317.526611 1154.785156 1316.509521 1155.493164 1314.947021 L 1165.344238 1294.097412 C 1166.064453 1292.542969 1165.979004 1290.044678 1165.05127 1288.579834 L 1153.495239 1268.60083 C 1152.640747 1267.152344 1153.336548 1266.094482 1155.053711 1266.314209 L 1177.893066 1269.276367 C 1179.626465 1269.430908 1181.945801 1268.568359 1183.113647 1267.266357 L 1198.465942 1250.111328 Z"/>
        <path id="path8" fill="#273777" stroke="none" d="M 834.76947 1755.148804 C 832.275391 1755.278931 830.350769 1757.459961 830.501343 1759.990845 C 830.59082 1762.489258 832.800293 1764.393555 835.286743 1764.238892 C 835.392029 1764.238892 852.01825 1764.133179 865.759277 1766.436157 C 868.221069 1766.834961 870.593262 1765.199219 870.987976 1762.660156 C 871.419312 1760.186157 869.734741 1757.858765 867.240417 1757.451782 C 852.400757 1754.937134 835.19696 1755.148804 834.76947 1755.148804"/>
        <path id="path9" fill="#273777" stroke="none" d="M 788.533813 1677.064453 C 788.533813 1677.064453 786.751343 1695.545898 786.865479 1696.131836 C 787.182373 1698.605835 789.416748 1700.200806 791.874207 1699.89978 C 794.303406 1699.639282 796.085876 1697.328125 795.902527 1694.854126 L 795.922852 1695.285522 C 795.89032 1694.015991 796.814209 1685.178101 797.615295 1678.138672 C 797.875732 1675.624023 796.105713 1673.369751 793.579102 1673.044312 C 791.113281 1672.783813 788.830322 1674.590454 788.533813 1677.064453"/>
        <path id="path10" fill="#273777" stroke="none" d="M 884.147156 1550.510132 C 863.110352 1558.347046 842.903687 1575.298462 842.224121 1575.982056 C 840.44574 1577.788696 840.42157 1580.677734 842.277039 1582.443726 C 844.075562 1584.209595 846.936279 1584.185181 848.689819 1582.386719 C 848.864746 1582.264648 868.229187 1566.159546 887.329102 1559.055054 C 889.68103 1558.184204 890.905762 1555.571899 890.014648 1553.179321 C 889.139832 1550.84375 886.527527 1549.663696 884.147156 1550.510132"/>
        <path id="path11" fill="#273777" stroke="none" d="M 945.316589 1413.978516 C 944.783569 1416.664063 927.726257 1494.886719 926.086426 1504.888306 C 925.667358 1507.370483 927.331543 1509.706055 929.838074 1510.129272 C 932.27948 1510.560547 934.676147 1508.851563 935.050476 1506.410156 C 936.71875 1496.595703 954.093445 1416.574463 954.23584 1415.915283 C 954.748535 1413.449463 953.202332 1411 950.720215 1410.511719 C 948.323608 1409.958252 945.849609 1411.537109 945.316589 1413.978516"/>
        <path id="path12" fill="#273777" stroke="none" d="M 827.92157 1353.561768 C 826.647949 1355.750977 827.380371 1358.542236 829.581726 1359.779297 C 830.826599 1360.528076 861.100281 1377.796875 900.480164 1378.765381 C 903.007019 1378.814209 905.090332 1376.820313 905.106628 1374.346436 C 905.151367 1371.791016 903.198242 1369.723877 900.671387 1369.642578 C 863.73291 1368.747314 834.432007 1352.064453 834.159119 1351.885498 C 831.958008 1350.624023 829.199219 1351.364502 827.92157 1353.561768"/>
        <path id="path13" fill="#273777" stroke="none" d="M 1049.38147 1363.246094 C 1044.584106 1364.426025 1040.445923 1365.443359 1037.33313 1365.972412 C 1024.015259 1368.324219 998.535156 1367.779053 998.278809 1367.779053 C 995.76416 1367.713867 993.713379 1369.723877 993.644226 1372.246826 C 993.603516 1374.737061 995.568848 1376.83667 998.083496 1376.885498 C 999.182129 1376.934326 1024.674438 1377.471436 1038.89563 1374.981201 C 1042.293335 1374.354492 1046.59021 1373.321045 1051.570679 1372.100342 C 1067.443848 1368.218506 1103.719116 1363.506592 1127.978516 1365.516602 C 1130.501343 1365.728271 1132.727051 1363.848389 1132.897949 1361.33374 C 1133.14209 1358.819092 1131.254028 1356.629883 1128.73938 1356.426514 C 1103.011108 1354.286133 1065.820313 1359.209717 1049.38147 1363.246094"/>
        <path id="path14" fill="#273777" stroke="none" d="M 1162.308716 1398.394287 C 1162.272095 1398.614014 1158.874512 1418.682373 1147.375488 1443.519531 C 1146.374512 1445.798096 1147.342896 1448.5 1149.621582 1449.566162 C 1151.940918 1450.624023 1154.626465 1449.606689 1155.67627 1447.328125 C 1167.708374 1421.319092 1171.179199 1400.746094 1171.313477 1399.859131 C 1171.683716 1397.393311 1170.043945 1395.049561 1167.553711 1394.618164 C 1165.063477 1394.26001 1162.70752 1395.936523 1162.308716 1398.394287"/>
        <path id="path15" fill="#273777" stroke="none" d="M 1205.725098 1371.644531 C 1204.248047 1373.719727 1204.744507 1376.551758 1206.82373 1377.992188 C 1207.307983 1378.317627 1270.096802 1408.013428 1297.167969 1461.846313 C 1298.31543 1464.092407 1301.025391 1465.012085 1303.271484 1463.897095 C 1305.529785 1462.733398 1306.429077 1459.990845 1305.310059 1457.769287 C 1277.201294 1401.787842 1214.151978 1371.986328 1212.04834 1370.521484 C 1210.001587 1369.048584 1207.15332 1369.544922 1205.725098 1371.644531"/>
        <path id="path16" fill="#273777" stroke="none" d="M 816.638428 1562.293945 C 817.533386 1561.187134 818.782593 1561.317383 819.417603 1562.570679 L 832.584656 1588.018188 C 833.243835 1589.295898 834.899902 1590.435181 836.336304 1590.646851 L 864.709473 1594.520508 C 866.101074 1594.732056 866.630066 1595.879517 865.856934 1597.035156 L 850.427246 1621.205078 C 849.633789 1622.393188 849.499512 1624.427734 850.028503 1625.746094 L 860.823608 1652.28418 C 861.336304 1653.578125 860.644531 1654.603516 859.269226 1654.538452 L 830.602783 1653.236328 C 829.191345 1653.138672 827.311218 1654.025757 826.465088 1655.116211 L 808.890808 1677.772461 C 808.012146 1678.903687 806.770874 1678.773438 806.156189 1677.520142 L 792.927795 1652.105103 C 792.272949 1650.835571 790.592468 1649.671875 789.200867 1649.476563 L 760.827393 1645.545898 C 759.436279 1645.391235 758.927429 1644.235718 759.6474 1643.055664 L 775.101746 1618.901978 C 775.846375 1617.681274 776.078308 1615.671265 775.553406 1614.377319 L 764.697021 1587.855469 C 764.168335 1586.545288 764.819092 1585.495483 766.308838 1585.560547 L 794.913757 1586.870728 C 796.317566 1586.919556 798.23407 1586.065063 799.084473 1584.942017 L 816.638428 1562.293945 Z"/>
        <path id="path17" fill="#273777" stroke="none" d="M 1323.388672 1453.871094 C 1324.035645 1452.967773 1324.951172 1453.024658 1325.524902 1453.911865 L 1336.682129 1472.987305 C 1337.264038 1473.939453 1338.557983 1474.769531 1339.652466 1474.883423 L 1361.682129 1476.714478 C 1362.752319 1476.812134 1363.216187 1477.69104 1362.66272 1478.602539 L 1351.745605 1497.808228 C 1351.184082 1498.752319 1351.147461 1500.298462 1351.590942 1501.323853 L 1360.998535 1521.310913 C 1361.442017 1522.254883 1360.953735 1523.133789 1359.887695 1523.133789 L 1337.780762 1523.280273 C 1336.682129 1523.296509 1335.27832 1524.004517 1334.623169 1524.883423 L 1322.025513 1543.015015 C 1321.451782 1543.910156 1320.487427 1543.901978 1319.901489 1542.949829 L 1308.744263 1523.87439 C 1308.162476 1522.905884 1306.86853 1522.075806 1305.749512 1522.026978 L 1283.772827 1520.130859 C 1282.682251 1520.057617 1282.218384 1519.194946 1282.792114 1518.242798 L 1293.717407 1499.069702 C 1294.250488 1498.084961 1294.327759 1496.514282 1293.807007 1495.53772 L 1284.423828 1475.575195 C 1283.996582 1474.582397 1284.505249 1473.809204 1285.571289 1473.768555 L 1307.678223 1473.597656 C 1308.744263 1473.597656 1310.15625 1472.857056 1310.795044 1471.978149 L 1323.388672 1453.871094 Z"/>
        <path id="path18" fill="#273777" stroke="none" d="M 1364.941406 1508.696899 C 1363.525391 1510.747681 1363.964844 1513.587891 1365.995239 1515.052734 C 1368.709351 1517.005859 1373.937988 1519.447266 1380.037476 1520.521484 C 1383.231567 1521.083008 1385.717773 1519.626343 1386.197876 1517.054688 C 1386.828613 1513.701782 1384.289551 1511.911499 1381.518555 1511.561523 C 1378.234863 1511.146484 1374.332642 1509.819946 1371.325684 1507.622681 C 1369.254517 1506.109009 1366.422485 1506.670532 1364.941406 1508.696899"/>
      </g>
      <g id="g4">
        <path id="path19" fill="#273777" stroke="none" d="M 1361.604858 1899.549805 L 1716.357422 1545.830688 L 1566.634155 1545.830688 L 1286.897827 1824.720703 L 1250.260376 1788.075195 L 1250.260376 1862.863647 C 1250.260376 1862.863647 1173.234009 1938.587891 1169.250488 1941.322266 C 1159.647583 1949.297485 1147.668457 1954.082642 1134.110474 1954.082642 C 1103.849243 1954.033813 1079.345703 1929.570923 1079.333496 1899.330078 C 1079.333496 1882.394897 1087.068726 1867.290649 1099.108887 1857.264648 L 1099.108887 1742.705688 C 1027.335571 1758.688843 973.64502 1822.678101 973.596191 1899.330078 C 973.64502 1987.977539 1045.438599 2059.770996 1134.110474 2059.803711 C 1174.934937 2059.852539 1212.670898 2044.349609 1240.90979 2019.089233 L 1286.694336 1974.183594 L 1568.570923 2256.353027 L 1717.972778 2256.353027 L 1361.604858 1899.549805 Z"/>
        <path id="path20" fill="#273777" stroke="none" d="M 1227.543091 1545.830688 L 1121.826172 1545.830688 L 1121.826172 1931.914673 C 1125.463867 1933.273804 1129.496216 1934.03064 1133.59375 1934.03064 C 1145.340942 1934.03064 1153.474976 1928.439819 1158.182739 1923.78479 L 1227.543091 1854.164063 L 1227.543091 1545.830688 Z"/>
        <path id="path21" fill="#273777" stroke="none" d="M 1121.826172 2082.077637 L 1121.826172 2256.353027 L 1227.543091 2256.353027 L 1227.543091 2056.938965 C 1199.487305 2073.564941 1167.301392 2082.533203 1134.163452 2082.533203 C 1134.163452 2082.533203 1125.887085 2082.346191 1121.826172 2082.077637 Z"/>
      </g>
    </g>
  </g>
</svg>