<?xml version="1.0" encoding="UTF-8"?>
<!DOCTYPE svg PUBLIC "-//W3C//DTD SVG 1.1//EN" "http://www.w3.org/Graphics/SVG/1.1/DTD/svg11.dtd">
<svg version="1.1" xmlns="http://www.w3.org/2000/svg" xmlns:xlink="http://www.w3.org/1999/xlink" x="0" y="0" width="1006" height="638" viewBox="0, 0, 1006, 638">
  <g id="Layer_1">
    <path d="M987.793,351.36 C987.793,505.461 769.375,630.383 499.922,630.383 C230.508,630.383 12.07,505.461 12.07,351.36 C12.07,197.239 230.508,72.317 499.922,72.317 C769.375,72.317 987.793,197.239 987.793,351.36" fill="#C0D7E6"/>
    <g>
      <path d="M936.016,351.36 C936.016,478.918 740.781,582.278 499.922,582.278 C259.102,582.278 63.848,478.918 63.848,351.36 C63.848,223.801 259.102,120.422 499.922,120.422 C740.781,120.422 936.016,223.801 936.016,351.36" fill="#FFFFFE"/>
      <path d="M385.684,200.598 L361.816,162.668 L371.641,121.926 L370.234,93.84 L394.121,65.754 L410.977,58.723 C410.977,58.723 444.688,5.364 503.672,27.825 C503.672,27.825 538.789,-8.699 580.918,29.231 C580.918,29.231 637.109,-7.293 665.195,40.461 C665.195,40.461 710.137,-3.074 743.848,58.723 C743.848,58.723 802.852,50.305 818.301,110.696 C818.301,110.696 888.516,109.289 882.91,179.524 C882.91,179.524 939.082,218.84 894.141,253.957 C894.141,253.957 915.215,308.743 864.648,324.192 L832.344,348.079 L816.895,310.149 L719.98,378.977 L719.98,293.293 L714.355,253.957 L780.371,180.93 L721.387,144.407 L694.688,169.68 L673.633,134.582 L611.816,140.188 L572.5,172.493 L565.469,127.551 L443.281,103.684 L448.887,175.305 L385.684,200.598" fill="#AACB41"/>
      <path d="M564.063,270.813 L601.992,300.305 L646.934,239.914 L638.516,210.422 L571.094,242.727 L564.063,270.813" fill="#AACB41"/>
      <path d="M714.355,253.957 L715.762,385.989 L609.023,464.641 L631.484,525.051 C631.484,525.051 440.469,689.387 387.09,501.164 L278.945,541.907 C278.945,541.907 152.52,555.95 187.637,423.918 C187.637,423.918 21.894,394.426 123.027,277.844 L180.625,258.176 C180.625,258.176 356.191,221.653 440.469,175.305 L478.398,193.567 L520.527,203.391 L575.313,241.321 L564.063,282.063 L526.152,362.121 L564.063,329.817 L641.328,238.508 L682.051,256.77 L714.355,253.957" fill="#ECAA34"/>
    </g>
    <path d="M616.035,473.079 C616.035,473.079 808.457,612.121 843.574,400.032 L816.895,310.149 L611.816,460.442 L616.035,473.079" fill="#F7E287"/>
    <path d="M618.848,467.454 C618.848,467.454 593.555,534.875 675.02,536.282 L718.574,522.239 L645.527,491.34 L618.848,467.454" fill="#F6D739"/>
    <path d="M644.375,245.735 L667.539,249.289 L715.293,250.207 L783.633,181.868 L728.398,142.551 L691.875,173.45 L683.457,137.375 L620.703,146.282 L574.844,172.493 L568.281,131.301 L509.297,125.696 L448.438,109.758 L445.625,170.637 L480.254,201.536 L515.859,210.891 L574.844,238.059 L629.141,207.161 L644.375,245.735" fill="#DE653D"/>
    <path d="M887.539,177.551 C955.039,224.993 995.43,285.207 995.43,350.735 C995.43,503.84 774.844,628 502.734,628 C230.586,628 10,503.84 10,350.735 C10,223.723 161.738,116.653 368.809,83.84 M714.355,380.383 C726.992,338.235 718.379,274.368 714.688,246.34 C714.688,246.34 699.453,259.172 670.664,250.227 M642.813,238.723 C642.813,238.723 583.066,337.454 477.793,406.536 C477.793,406.536 358.301,470.676 402.109,542.532 C402.109,542.532 456.953,642.825 595.273,546.633 C595.273,546.633 608.926,538.254 627.129,520.676 M643.691,228.118 L615.703,139.016 L681.875,133.879 L692.617,176.164 L725.879,139.973 L782.324,182.336 L718.105,244.289 M502.754,387.844 C532.48,348.352 558.828,299.465 575.156,239.602 L631.289,207.551 M550.684,219.661 L520.566,202.844 C520.566,202.844 407.656,328.743 241.055,384.543 C241.055,384.543 162.988,402.844 179.18,478.606 C179.18,478.606 215.645,576.946 318.262,532.063 C318.262,532.063 348.906,520.891 389.707,493.821 M520.566,202.844 L505.195,120.969 L566.543,128.137 L573.379,172.59 L609.746,152.961 M183.496,419.329 C95.195,428.645 90.508,349.504 90.508,349.504 C90.547,265.207 169.688,260.481 169.688,260.481 C280.215,255.657 446.367,173.332 446.367,173.332 L441.563,101.379 L500.273,117.61 M455.43,175.969 L477.207,193.332 M380.078,193.567 C380.078,193.567 344.961,161.262 374.453,124.739 C374.453,124.739 350.566,72.766 412.383,62.942 C412.383,62.942 444.688,-1.668 503.672,34.856 C503.672,34.856 537.383,-14.304 578.105,27.825 C578.105,27.825 625.859,-11.492 663.789,40.461 C663.789,40.461 719.98,5.364 746.66,57.317 C746.66,57.317 805.664,51.711 812.676,106.477 C812.676,106.477 877.285,109.289 880.098,175.305 C880.098,175.305 933.477,213.235 892.734,258.176 C892.734,258.176 929.258,308.743 860.43,325.598 C860.43,325.598 854.766,339.778 836.445,344.856 M568.281,280.657 C568.281,280.657 583.73,297.512 597.773,294.7 M613.223,463.254 L816.895,308.743 C816.895,308.743 884.316,433.743 793.008,496.946 C793.008,496.946 707.344,551.731 613.223,463.254 z M611.816,463.254 C611.816,463.254 601.992,578.411 753.691,513.801" fill-opacity="0" stroke="#2F3533" stroke-width="20" stroke-linecap="round" stroke-linejoin="round"/>
    <path d="M721.836,391.614 L716.23,502.121 M732.148,385.051 L798.633,482.454 M737.773,380.383 L837.012,395.364 M491.484,505.852 L489.629,546.106 M525.195,488.996 L523.34,529.25 M565.469,467.454 L563.613,507.727 M254.57,462.805 L252.715,503.079 M294.844,454.348 L292.988,494.621 M334.18,446.848 L332.305,487.121 M168.438,353.254 L166.582,393.528 M206.836,348.547 L204.98,388.821 M243.359,341.985 L241.504,382.258" fill-opacity="0" stroke="#2F3533" stroke-width="15" stroke-linecap="round" stroke-linejoin="round"/>
  </g>
</svg>
