<?xml version="1.0" encoding="utf-8"?>
<svg width="256px" height="256px" viewBox="0 0 254 254" class="icon" version="1.1" xmlns="http://www.w3.org/2000/svg">
  <path d="M 3 127 C 3 222.313 106.334 281.883 189.001 234.228 C 227.366 212.11 251 171.235 251 127 C 251 31.688 147.666 -27.884 65 19.773 C 26.635 41.89 3 82.765 3 127 Z" fill="#9AF4EF"/>
  <path d="M 241.087 78.432 C 236.962 78.866 233.342 80.929 230.942 84.049 C 230.047 83.837 229.124 83.694 228.163 83.694 C 226.29 83.694 224.541 84.159 222.961 84.922 C 220.993 80.982 216.959 78.25 212.25 78.25 C 209.018 78.25 206.098 79.54 203.941 81.613 C 202.768 81.231 201.54 80.973 200.24 80.973 C 198.452 80.973 196.771 81.389 195.245 82.089 C 193.052 79.741 189.952 78.25 186.484 78.25 C 184.152 78.25 181.994 78.943 180.152 80.092 C 177.952 77.632 174.787 76.054 171.226 76.054 C 164.593 76.054 159.217 81.422 159.217 88.045 C 159.217 94.668 164.593 100.038 171.226 100.038 C 173.557 100.038 175.716 99.345 177.558 98.197 C 179.758 100.656 182.922 102.234 186.484 102.234 C 188.273 102.234 189.954 101.818 191.48 101.118 C 193.671 103.466 200.064 114.121 203.531 114.121 C 206.763 114.121 206.392 103.667 208.551 101.593 C 209.724 101.976 210.951 102.234 212.25 102.234 C 214.123 102.234 215.872 101.77 217.452 101.006 C 219.42 104.946 223.456 107.678 228.163 107.678 C 230.713 107.678 233.067 106.873 235.011 105.521 C 237.233 106.862 239.809 107.678 242.593 107.678 C 244.981 107.678 247.203 107.058 249.197 106.052 C 247.553 96.422 244.821 87.165 241.087 78.431 L 241.087 78.432 Z M 85.418 76.054 C 82.203 76.054 79.301 77.332 77.145 79.385 C 74.991 77.332 72.086 76.054 68.873 76.054 C 66.11 76.054 63.596 77.022 61.568 78.589 C 59.538 77.022 57.025 76.054 54.262 76.054 C 50.472 76.054 47.133 77.842 44.932 80.58 C 43.873 80.274 42.775 80.059 41.617 80.059 C 39.761 80.059 38.024 80.515 36.455 81.266 C 34.209 79.215 31.248 77.934 27.965 77.934 C 24.473 77.934 21.315 79.35 19.03 81.637 C 17.097 80.661 14.944 80.059 12.63 80.059 C 12.494 80.059 12.368 80.096 12.233 80.099 C 8.793 88.492 6.293 97.239 4.78 106.181 C 7.033 107.669 9.726 108.547 12.63 108.547 C 17.435 108.547 25.769 112.182 28.353 108.547 C 29.535 108.912 30.411 106.445 31.714 106.445 C 33.999 106.445 32.364 102.487 34.212 101.427 C 36.258 103.04 38.808 104.043 41.617 104.043 C 45.408 104.043 48.746 102.255 50.947 99.516 C 52.007 99.822 53.104 100.038 54.262 100.038 C 57.025 100.038 59.538 99.068 61.568 97.503 C 63.596 99.068 66.11 100.038 68.873 100.038 C 72.086 100.038 74.99 98.759 77.144 96.706 C 79.3 98.759 82.203 100.038 85.417 100.038 C 92.049 100.038 97.426 94.668 97.426 88.045 C 97.427 81.421 92.05 76.053 85.418 76.053 L 85.418 76.054 Z" fill="#00C8B4"/>
  <path d="M 3.014 127.553 C 3.314 195.679 58.703 250.816 127 250.816 C 195.297 250.816 250.687 195.679 250.985 127.554 L 3.014 127.554 L 3.014 127.553 Z" fill="#52C883"/>
  <path d="M 20.955 191.176 C 49.823 189.185 88.549 213.816 123.126 213.816 C 191.809 213.816 200.948 188.257 234.736 188.257 C 244.975 170.339 250.89 149.638 250.985 127.553 L 3.014 127.553 C 3.116 150.841 9.663 172.606 20.955 191.176 Z" fill="#34BE71"/>
  <path d="M 16.769 183.695 C 46.301 182.463 100.785 179.775 141.598 185.815 C 176.15 190.928 214.833 185.869 239.464 178.991 C 246.744 163.334 250.906 145.935 250.985 127.553 L 3.014 127.553 C 3.103 147.783 8.067 166.859 16.769 183.695 Z" fill="#00A07D"/>
  <path d="M 8.989 164.949 C 27.864 175.086 59.015 177.97 96 174.104 C 136.364 169.884 177.068 169.182 206.446 171.468 C 222.659 172.73 235.015 171.884 242.854 170.874 C 248.002 157.396 250.92 142.822 250.985 127.554 L 3.014 127.554 C 3.068 140.25 5.083 152.864 8.989 164.949 Z" fill="#00827E"/>
  <path d="M 241.489 174.554 C 242.991 170.954 244.332 167.271 245.493 163.507 L 243.841 127.554 L 242.525 127.554 L 241.489 174.554 Z M 14.844 179.794 L 12.542 129.666 L 11.263 129.666 L 10.394 169.129 C 11.709 172.751 13.194 176.311 14.844 179.794 Z" fill="#4F6E6E"/>
  <path d="M 239.507 94.374 C 235.454 94.374 231.723 99.422 228.7 106.07 C 227.538 112.876 226.899 119.862 226.899 127 C 226.899 134.895 227.671 142.606 229.086 150.092 C 232.041 152.163 235.622 153.4 239.507 153.4 C 242.869 153.4 245.978 152.427 248.68 150.839 C 250.188 143.123 251 135.158 251 127 C 251 118.801 250.189 110.624 248.576 102.584 C 245.904 97.745 242.814 94.374 239.507 94.374 Z M 5.186 150.092 C 8.141 152.163 11.723 153.4 15.607 153.4 C 25.653 153.4 33.797 145.269 33.797 135.239 C 33.797 125.208 25.653 94.374 15.607 94.374 C 11.554 94.374 7.823 99.422 4.8 106.07 C 3.638 112.877 3 119.862 3 127 C 3 134.895 3.771 142.606 5.186 150.092 Z" fill="#00A07D"/>
  <path d="M 122.557 179.372 L 117.639 179.372 L 118.819 125.826 L 120.098 125.826 L 122.557 179.372 Z M 107.904 180.546 L 102.988 180.546 L 104.167 127 L 105.445 127 L 107.904 180.546 Z M 138.788 179.372 L 134.575 179.372 L 135.586 133.506 L 136.681 133.506 L 138.788 179.372 Z M 132.286 176.706 L 128.072 176.706 L 129.084 130.841 L 130.178 130.841 L 132.286 176.706 Z M 159.82 179.372 L 155.608 179.372 L 156.62 133.506 L 157.715 133.506 L 159.82 179.372 Z M 202.32 177.57 L 198.11 177.57 L 199.12 131.705 L 200.214 131.705 L 202.32 177.57 Z M 224.089 176.706 L 219.876 176.706 L 220.888 130.841 L 221.982 130.841 L 224.089 176.706 Z M 233.777 175.531 L 229.564 175.531 L 230.576 129.665 L 231.67 129.665 L 233.777 175.531 Z M 33.821 178.153 L 29.609 178.153 L 30.619 132.287 L 31.715 132.287 L 33.821 178.153 Z M 20.909 177.57 L 16.696 177.57 L 17.708 131.705 L 18.802 131.705 L 20.909 177.57 Z M 97.73 179.372 L 92.812 179.372 L 93.992 125.826 L 95.271 125.826 L 97.73 179.372 Z M 80.925 179.372 L 76.008 179.372 L 77.188 125.826 L 78.467 125.826 L 80.925 179.372 Z M 68.873 179.372 L 63.956 179.372 L 65.136 125.826 L 66.414 125.826 L 68.873 179.372 Z M 51.524 178.601 L 46.605 178.601 L 47.786 125.055 L 49.064 125.055 L 51.524 178.601 Z" fill="#00827E"/>
  <path d="M 141.598 185.815 L 136.681 185.815 L 137.861 132.269 L 139.139 132.269 L 141.598 185.815 Z M 153.095 184.839 L 148.177 184.839 L 149.357 131.293 L 150.636 131.293 L 153.095 184.839 Z M 171.225 184.839 L 166.308 184.839 L 167.49 131.293 L 168.768 131.293 L 171.225 184.839 Z M 186.483 183.828 L 181.566 183.828 L 182.747 130.281 L 184.025 130.281 L 186.483 183.828 Z M 205.133 181.993 L 200.214 181.993 L 201.396 128.446 L 202.674 128.446 L 205.133 181.993 Z M 226.899 179.35 L 221.982 179.35 L 223.162 125.803 L 224.441 125.803 L 226.899 179.35 Z M 236.588 181.412 L 231.67 181.412 L 232.85 127.865 L 234.128 127.865 L 236.588 181.412 Z M 38.714 183.828 L 33.797 183.828 L 34.977 130.281 L 36.255 130.281 L 38.714 183.828 Z M 23.72 184.839 L 18.802 184.839 L 19.983 131.293 L 21.261 131.293 L 23.72 184.839 Z" fill="#4F6E6E"/>
  <path d="M 95.271 195.639 L 88.549 195.639 L 90.162 122.445 L 91.911 122.445 L 95.271 195.639 Z M 115.793 195.639 L 109.071 195.639 L 110.684 122.445 L 112.432 122.445 L 115.793 195.639 Z M 145.861 195.025 L 139.139 195.025 L 140.753 121.833 L 142.5 121.833 L 145.861 195.025 Z M 164.436 195.025 L 157.715 195.025 L 159.327 121.833 L 161.075 121.833 L 164.436 195.025 Z M 197.121 195.639 L 190.4 195.639 L 192.013 122.445 L 193.76 122.445 L 197.121 195.639 Z M 215.612 193.473 L 208.889 193.473 L 210.503 120.281 L 212.25 120.281 L 215.612 193.473 Z M 66.414 191.235 L 59.693 191.235 L 61.307 118.041 L 63.054 118.041 L 66.414 191.235 Z" fill="#6C5F59"/>
  <path d="M 54.884 184.839 L 49.967 184.839 L 51.147 131.293 L 52.426 131.293 L 54.884 184.839 Z M 85.418 185.202 L 80.5 185.202 L 81.68 131.656 L 82.959 131.656 L 85.418 185.202 Z M 105.445 185.815 L 100.528 185.815 L 101.709 132.269 L 102.988 132.269 L 105.445 185.815 Z M 125.584 185.815 L 120.666 185.815 L 121.847 132.269 L 123.126 132.269 L 125.584 185.815 Z" fill="#4F6E6E"/>
  <path d="M 31.715 191.817 L 24.993 191.817 L 26.606 118.622 L 28.353 118.622 L 31.715 191.817 Z" fill="#6C5F59"/>
  <path d="M 239.867 146.243 C 239.867 159.513 229.093 170.272 215.802 170.272 C 202.512 170.272 191.738 159.513 191.738 146.243 C 191.738 132.971 202.512 92.177 215.802 92.177 C 229.093 92.177 239.867 132.971 239.867 146.242 L 239.867 146.243 Z" fill="#34BE71"/>
  <path d="M 214.555 151.828 L 213.407 200.194 L 220.472 200.194 L 218.082 151.828 L 214.555 151.828 Z" fill="#805F59"/>
  <path d="M 215.802 159.12 L 226.838 150.157 L 228.163 152.577 L 215.802 163.597 L 215.802 159.12 Z" fill="#805F59"/>
  <path d="M 215.801 92.177 C 212.483 92.177 209.321 94.722 206.446 98.745 C 207.328 98.386 208.223 98.18 209.133 98.18 C 222.422 98.18 233.197 138.974 233.197 152.244 C 233.197 157.707 231.351 162.727 228.274 166.764 C 235.216 162.549 239.867 154.947 239.867 146.243 C 239.867 132.971 229.093 92.177 215.801 92.177 Z" fill="#52C883"/>
  <path d="M 66.414 144.179 C 66.414 157.957 55.228 169.128 41.429 169.128 C 27.63 169.128 16.443 157.958 16.443 144.179 C 16.443 130.4 27.63 88.045 41.429 88.045 C 55.228 88.045 66.414 130.4 66.414 144.179 Z" fill="#34BE71"/>
  <path d="M 40.134 149.978 L 38.943 200.193 L 46.278 200.193 L 43.796 149.978 L 40.134 149.978 Z" fill="#805F59"/>
  <path d="M 41.429 157.547 L 52.888 148.243 L 54.262 150.756 L 41.429 162.196 L 41.429 157.547 Z" fill="#805F59"/>
  <path d="M 41.429 88.045 C 37.984 88.045 34.7 90.686 31.715 94.865 C 32.631 94.492 33.56 94.276 34.504 94.276 C 48.303 94.276 59.49 136.632 59.49 150.41 C 59.49 156.082 57.572 161.295 54.379 165.484 C 61.585 161.108 66.414 153.217 66.414 144.179 C 66.414 130.4 55.228 88.045 41.429 88.045 Z" fill="#52C883"/>
  <path d="M 109.338 50.506 C 107.889 50.506 106.522 50.79 105.211 51.203 C 101.058 45.241 94.167 41.322 86.343 41.322 C 78.518 41.322 71.627 45.241 67.474 51.203 C 66.163 50.79 64.795 50.506 63.347 50.506 C 55.727 50.506 49.551 56.675 49.551 64.282 L 123.136 64.282 C 123.136 56.675 116.957 50.506 109.338 50.506 Z" fill="#FFFFFF"/>
  <path d="M 177.705 56.073 C 176.785 56.073 175.915 56.254 175.08 56.517 C 172.437 52.724 168.055 50.229 163.075 50.229 C 158.097 50.229 153.714 52.724 151.071 56.517 C 150.236 56.254 149.367 56.073 148.445 56.073 C 143.597 56.073 139.667 59.997 139.667 64.838 L 186.483 64.838 C 186.483 59.997 182.554 56.073 177.705 56.073 Z" fill="#FFFFFF"/>
  <path d="M 148.902 118.761 C 148.532 117.274 148.313 115.726 148.313 114.122 C 148.313 103.618 156.771 95.103 167.203 95.103 C 168.299 95.103 169.367 95.217 170.411 95.398 C 173.713 93.368 177.581 92.177 181.735 92.177 C 193.772 92.177 203.531 102.002 203.531 114.121 C 203.531 114.665 203.489 115.2 203.45 115.732 C 208.908 121.929 212.25 130.059 212.25 138.993 C 212.25 158.383 196.636 174.104 177.375 174.104 C 158.113 174.104 142.5 158.383 142.5 138.993 C 142.5 131.452 144.883 124.482 148.902 118.761 Z" fill="#00A07D"/>
  <path d="M 180.551 200.194 L 174.445 200.194 L 175.91 138.444 L 177.497 138.444 L 180.551 200.194 Z" fill="#805F59"/>
  <path d="M 176.46 162.269 L 162.724 151.114 L 161.075 152.028 L 176.46 165.744 L 176.46 162.269 Z M 177.375 148.757 L 168.056 141.187 L 166.936 141.808 L 177.375 151.114 L 177.375 148.757 Z M 177.375 156.417 L 191.111 145.262 L 192.76 146.177 L 177.375 159.892 L 177.375 156.417 Z" fill="#805F59"/>
  <path d="M 203.45 115.733 C 203.489 115.2 203.531 114.666 203.531 114.122 C 203.531 102.002 193.772 92.177 181.735 92.177 C 177.581 92.177 173.713 93.368 170.41 95.397 C 169.366 95.217 168.299 95.102 167.203 95.102 C 161.563 95.102 156.556 97.644 153.095 101.59 C 155.091 100.869 157.21 100.406 159.452 100.406 C 160.548 100.406 161.616 100.52 162.66 100.7 C 165.963 98.671 169.83 97.48 173.984 97.48 C 186.022 97.48 195.78 107.305 195.78 119.425 C 195.78 119.969 195.739 120.501 195.7 121.036 C 201.158 127.232 204.501 135.362 204.501 144.296 C 204.501 154.679 199.997 163.98 192.882 170.409 C 204.35 164.658 212.25 152.769 212.25 138.992 C 212.25 130.059 208.909 121.929 203.45 115.732 L 203.45 115.733 Z" fill="#36B294"/>
  <path d="M 106.581 110.533 C 106.992 108.895 107.235 107.191 107.235 105.426 C 107.235 93.86 97.845 84.485 86.263 84.485 C 85.047 84.485 83.863 84.611 82.703 84.809 C 79.036 82.575 74.742 81.264 70.131 81.264 C 56.768 81.264 45.934 92.081 45.934 105.426 C 45.934 106.025 45.981 106.612 46.023 107.2 C 39.965 114.022 36.254 122.973 36.254 132.808 C 36.254 154.16 53.588 171.468 74.972 171.468 C 96.354 171.468 113.687 154.161 113.687 132.808 C 113.687 124.506 111.042 116.833 106.581 110.533 Z" fill="#00A07D"/>
  <path d="M 106.581 110.533 C 106.992 108.895 107.235 107.191 107.235 105.426 C 107.235 93.86 97.845 84.485 86.263 84.485 C 85.047 84.485 83.863 84.611 82.703 84.809 C 79.036 82.575 74.742 81.264 70.131 81.264 C 60.189 81.264 51.655 87.256 47.934 95.817 C 52.244 90.859 58.611 87.707 65.733 87.707 C 70.212 87.707 74.382 88.972 77.944 91.126 C 79.07 90.934 80.221 90.813 81.403 90.813 C 92.653 90.813 101.774 99.854 101.774 111.006 C 101.774 112.707 101.537 114.352 101.137 115.93 C 105.471 122.005 108.042 129.404 108.042 137.41 C 108.042 149.191 102.514 159.679 93.906 166.51 C 105.704 159.886 113.687 147.286 113.687 132.808 C 113.687 124.506 111.042 116.833 106.581 110.533 Z" fill="#36B294"/>
  <path d="M 78.467 200.194 L 71.745 200.194 L 73.358 127 L 75.106 127 L 78.467 200.194 Z" fill="#805F59"/>
  <path d="M 73.963 155.217 L 58.84 142.934 L 57.025 143.94 L 73.963 159.041 L 73.963 155.217 Z M 74.972 148.773 L 90.095 136.491 L 91.911 137.497 L 74.972 152.599 L 74.972 148.773 Z" fill="#805F59"/>
  <path d="M 164.963 92.508 C 165.459 90.541 165.75 88.493 165.75 86.373 C 165.75 72.484 154.474 61.224 140.563 61.224 C 139.102 61.224 137.679 61.374 136.286 61.613 C 131.882 58.929 126.725 57.354 121.188 57.354 C 105.136 57.354 92.125 70.346 92.125 86.373 C 92.125 87.093 92.181 87.797 92.233 88.504 C 84.955 96.698 80.5 107.448 80.5 119.261 C 80.5 144.905 101.318 165.693 127 165.693 C 152.682 165.693 173.5 144.905 173.5 119.261 C 173.5 109.29 170.323 100.074 164.963 92.508 Z" fill="#34BE71"/>
  <path d="M 164.963 92.508 C 165.459 90.541 165.75 88.493 165.75 86.373 C 165.75 72.484 154.474 61.224 140.563 61.224 C 139.102 61.224 137.679 61.374 136.286 61.613 C 131.882 58.929 126.725 57.354 121.188 57.354 C 109.246 57.354 98.996 64.551 94.528 74.835 C 99.705 68.879 107.352 65.093 115.905 65.093 C 121.283 65.093 126.293 66.611 130.571 69.198 C 131.924 68.97 133.306 68.824 134.725 68.824 C 148.237 68.824 159.191 79.681 159.191 93.076 C 159.191 95.119 158.909 97.094 158.427 98.99 C 163.632 106.287 166.72 115.173 166.72 124.789 C 166.72 138.939 160.08 151.534 149.741 159.739 C 163.911 151.783 173.5 136.651 173.5 119.261 C 173.5 109.29 170.323 100.074 164.963 92.508 Z M 87.779 95.129 C 87.764 94.918 87.761 94.702 87.746 94.489 C 87.25 95.268 86.793 96.074 86.343 96.884 C 86.817 96.296 87.275 95.694 87.779 95.129 Z" fill="#52C883"/>
  <path d="M 131.198 200.194 L 123.126 200.194 L 125.063 118.536 L 127.161 118.536 L 131.198 200.194 Z" fill="#805F59"/>
  <path d="M 125.79 150.043 L 107.625 135.292 L 105.445 136.501 L 125.79 154.638 L 125.79 150.043 Z M 127 132.173 L 114.676 122.164 L 113.195 122.984 L 127 135.292 L 127 132.173 Z M 127 142.305 L 145.164 127.553 L 147.344 128.762 L 127 146.9 L 127 142.305 Z" fill="#805F59"/>
  <path d="M 103.052 35.182 C 103.052 29.815 107.409 25.463 112.785 25.463 C 113.594 25.463 114.37 25.592 115.123 25.779 C 117.662 23.041 121.263 21.3 125.295 21.3 C 132.974 21.3 139.198 27.514 139.198 35.182 L 103.052 35.182 Z" fill="#FFFFFF"/>
  <path d="M 153.094 37.116 C 153.094 33.864 150.458 31.227 147.206 31.227 C 146.714 31.227 146.245 31.305 145.789 31.417 C 144.252 29.759 142.075 28.703 139.633 28.703 C 134.987 28.703 131.221 32.469 131.221 37.115 L 153.094 37.115 L 153.094 37.116 Z" fill="#FFFFFF"/>
  <path d="M 177.375 50.229 C 177.375 46.456 180.434 43.398 184.207 43.398 C 184.776 43.398 185.321 43.488 185.849 43.62 C 187.632 41.695 190.16 40.47 192.989 40.47 C 198.379 40.47 202.749 44.84 202.749 50.229 L 177.375 50.229 Z" fill="#FFFFFF"/>
</svg>