<svg height="256pt" viewBox="0 0 260.63317 256" width="260.63318pt" xmlns="http://www.w3.org/2000/svg"><path d="m259.50429 108.55014c-6.8792-52.35243-44.8265-94.89758-94.733-108.55014l-34.4547 34.45475c43.9798 0 80.6923 31.12689 89.3001 72.55491-36.4538 4.16279-68.345 23.3422-89.3001 51.24702-20.9551-27.89305-52.84632-47.08423-89.31191-51.24702 8.61956-41.42802 45.33212-72.55491 89.31191-72.55491l-34.4548-34.45475c-49.90645 13.65256-87.85369 56.19771-94.74467 108.55014-.72905 5.59741-1.11712 11.32418-1.11712 17.13328 0 7.7729.70554 15.36941 2.02258 22.76601 7.65531-2.09315 15.71043-3.22204 24.02426-3.22204 5.29171 0 10.44226.47037 15.46349 1.32881 30.5389 5.22112 55.89196 25.59998 68.03936 53.14028 2.2342 5.06824 4.0216 10.35995 5.3034 15.87506 1.564 6.71457 2.4224 13.68781 2.4224 20.87275 0 6.39706-.6585 12.64126-1.905 18.67379-.07.30573-.1529.58796-.2233.88192h30.3272c-.059-.29381-.1529-.57619-.2116-.88192-1.2583-6.03253-1.9168-12.27673-1.9168-18.67379 0-7.18494.8584-14.15818 2.4224-20.87275 1.3053-5.51511 3.0809-10.80682 5.3152-15.87506 12.1474-27.5403 37.5004-47.91916 68.0276-53.14028 5.0212-.85844 10.1835-1.32881 15.4517-1.32881 8.3256 0 16.3925 1.12889 24.0478 3.22204 1.3052-7.3966 2.0225-14.99311 2.0225-22.76601 0-5.8091-.388-11.53587-1.1288-17.13328" fill="#323e9d" stroke-width="3.01038"/></svg>